# xmcd
#
# Track frame offsets:
#	150
#	20817
#	38636
#	54421
#	78945
#	94995
#	116787
#	133439
#	152967
#	170740
#	188206
#
# Disc length: 2829 seconds
#
# Revision: 0
# Processed by: cddbd v1.5.2PL0 Copyright (c) Steve Scherf et al.
# Submitted via: audiograbber 1.83.01
#
DISCID=9b0b0b0b
DTITLE=Protoje - Ancient Future
DYEAR=2015
DGENRE=Reggae
TTITLE0=Protection (feat. Mortimer)
TTITLE1=Criminal
TTITLE2=Who Knows (feat. Chronixx)
TTITLE3=All Will Have To Change
TTITLE4=Stylin'
TTITLE5=Love Gone Cold (feat. Sevana)
TTITLE6=Sudden Flight (feat. Jesse Royal and Sevana)
TTITLE7=Bubblin'
TTITLE8=Answer To Your Name
TTITLE9=Who Can You Call
TTITLE10=The Flame (feat. Kabaka Pyramid)
EXTD=
EXTT0=
EXTT1=
EXTT2=
EXTT3=
EXTT4=
EXTT5=
EXTT6=
EXTT7=
EXTT8=
EXTT9=
EXTT10=
PLAYORDER=
